<?xml version="1.0" encoding="iso-8859-1"?>
<!-- Generator: Adobe Illustrator 19.0.0, SVG Export Plug-In . SVG Version: 6.00 Build 0)  -->
<svg version="1.1" id="Layer_1" xmlns="http://www.w3.org/2000/svg" xmlns:xlink="http://www.w3.org/1999/xlink" x="0px" y="0px"
	 viewBox="0 0 512 512" style="enable-background:new 0 0 512 512;" xml:space="preserve">
<circle style="fill:#00AEE9;" cx="256" cy="256" r="256"/>
<path style="fill:#0082D1;" d="M512,256c0-3.461-0.089-6.9-0.225-10.327L382.406,116.304c-8.398-9.856-20.893-16.115-34.857-16.115
	c-7.849,0-15.231,1.982-21.686,5.465L313.021,92.66c-4.904-4.572-11.483-7.371-18.718-7.371c-4.413,0-12.437,2.751-12.521,2.678
	L266.224,72.41c-9.099-10.57-22.574-17.263-37.617-17.263c-26.147,0-47.556,20.222-49.479,45.877
	c-4.91-1.641-10.158-2.544-15.621-2.544c-27.203,0-49.255,22.052-49.255,49.255c0,14.946,6.669,28.322,17.18,37.353
	c1.577,1.824,3.279,3.537,5.104,5.112v208.93c0,12.43,5.64,23.54,14.497,30.919l80.809,80.809C239.797,511.602,247.852,512,256,512
	C397.385,512,512,397.385,512,256z"/>
<path style="fill:#FFFFFF;" d="M410.443,203.565H371.97v-56.858H136.538V399.13c0,22.218,18.012,40.23,40.23,40.23H331.74
	c22.219,0,40.23-18.012,40.23-40.23v-10.221h38.472c18.106,0,32.836-14.73,32.836-32.836V236.402
	C443.279,218.296,428.548,203.565,410.443,203.565z M414.788,356.071c0,2.396-1.95,4.346-4.346,4.346H371.97V232.056h38.472
	c2.396,0,4.346,1.95,4.346,4.346L414.788,356.071L414.788,356.071z"/>
<path style="fill:#FFF5CB;" d="M410.44,203.56h-38.47v-56.85H254.25v292.65h77.49c22.22,0,40.23-18.01,40.23-40.23v-10.22h38.47
	c18.11,0,32.84-14.73,32.84-32.84V236.4C443.28,218.3,428.55,203.56,410.44,203.56z M414.79,356.07c0,2.4-1.95,4.35-4.35,4.35
	h-38.47V232.06h38.47c2.4,0,4.35,1.95,4.35,4.34V356.07z"/>
<path style="fill:#FFA91F;" d="M329.803,416.804H178.705c-11.172,0-20.228-9.057-20.228-20.228V178.693h191.555v217.883
	C350.031,407.748,340.975,416.804,329.803,416.804z"/>
<path style="fill:#FF8900;" d="M350.03,178.69v217.89c0,11.17-9.06,20.22-20.23,20.22h-75.55V178.69H350.03z"/>
<g>
	<path style="fill:#E67500;" d="M202.983,369.249h-8.037c-6.6,0-12-5.4-12-12v-95.372c0-6.6,5.4-12,12-12h8.037c6.6,0,12,5.4,12,12
		v95.372C214.983,363.849,209.583,369.249,202.983,369.249z"/>
	<path style="fill:#E67500;" d="M258.272,369.249h-8.037c-6.6,0-12-5.4-12-12v-95.372c0-6.6,5.4-12,12-12h8.037c6.6,0,12,5.4,12,12
		v95.372C270.272,363.849,264.872,369.249,258.272,369.249z"/>
</g>
<path style="fill:#9A4C00;" d="M313.562,369.249h-8.037c-6.6,0-12-5.4-12-12v-95.372c0-6.6,5.4-12,12-12h8.037c6.6,0,12,5.4,12,12
	v95.372C325.562,363.849,320.162,369.249,313.562,369.249z"/>
<path style="fill:#FFF5CB;" d="M347.55,100.189c-9.715,0-18.717,3.035-26.127,8.195c-2.096-13.091-13.438-23.095-27.12-23.095
	c-6.783,0-12.987,2.463-17.779,6.537c-5.699-21.128-24.986-36.681-47.916-36.681c-26.147,0-47.556,20.222-49.479,45.877
	c-4.91-1.641-10.158-2.544-15.621-2.544c-27.203,0-49.255,22.052-49.255,49.255s22.052,49.255,49.255,49.255
	c14.855,0,28.164-6.586,37.195-16.986c8.454,10.364,21.322,16.986,35.74,16.986c11.049,0,21.176-3.903,29.116-10.385v35.489
	c0,8.926,7.303,16.229,16.229,16.229l0,0c8.926,0,16.229-7.303,16.229-16.229v-26.086c2.762,0.631,5.63,0.982,8.583,0.982
	c9.105,0,17.465-3.173,24.051-8.465c5.23,2.079,10.928,3.234,16.899,3.234c25.286,0,45.785-20.499,45.785-45.785
	C393.335,120.688,372.836,100.189,347.55,100.189z"/>
<path style="fill:#FFE670;" d="M393.33,145.97c0,16.31-8.52,30.63-21.36,38.74c-6.41,4.05-13.9,6.56-21.94,6.98
	c-0.82,0.05-1.65,0.07-2.48,0.07c-5.97,0-11.67-1.16-16.9-3.24c-6.58,5.3-14.94,8.47-24.05,8.47c-2.95,0-5.82-0.35-8.58-0.98v26.08
	c0,4.47-1.83,8.52-4.77,11.46c-2.94,2.95-7,4.77-11.46,4.77c-8.93,0-16.23-7.3-16.23-16.23V186.6c-3.4,2.78-7.21,5.08-11.31,6.81
	V62.28c10.79,6.53,18.9,17.07,22.27,29.55c4.8-4.08,11-6.54,17.78-6.54c13.68,0,25.03,10,27.12,23.09
	c7.41-5.16,16.42-8.19,26.13-8.19C372.84,100.19,393.33,120.69,393.33,145.97z"/>
<path style="fill:#9A4C00;" d="M270.27,261.88v95.37c0,6.6-5.4,12-12,12h-4.02V249.88h4.02
	C264.87,249.88,270.27,255.28,270.27,261.88z"/>
<g>
</g>
<g>
</g>
<g>
</g>
<g>
</g>
<g>
</g>
<g>
</g>
<g>
</g>
<g>
</g>
<g>
</g>
<g>
</g>
<g>
</g>
<g>
</g>
<g>
</g>
<g>
</g>
<g>
</g>
</svg>
